<svg id="eLnPEA5BhOr1" xmlns="http://www.w3.org/2000/svg" xmlns:xlink="http://www.w3.org/1999/xlink" viewBox="0 0 280.420000 122.170000" shape-rendering="geometricPrecision" text-rendering="geometricPrecision"><path id="eLnPEA5BhOr2" d="M114.400000,89C114.400000,80.150000,114.400000,71.300000,114.400000,62.450000C114.439729,60.670174,114.579953,58.894012,114.820000,57.130000C115.243038,54.193071,116.539112,51.451109,118.540000,49.260000C122.068066,45.054012,126.783838,42.011241,132.070000,40.530000C141.172677,37.568399,151.077604,38.330593,159.620000,42.650000C163.699168,44.522973,167.078210,47.642897,169.270000,51.560000C170.690499,54.088149,171.434490,56.940114,171.430000,59.840000C171.360000,66.130000,171.430000,72.420000,171.430000,78.710000C171.430000,80.220000,171.430000,80.220000,169.870000,80.230000L146.870000,80.230000C145.440000,80.230000,145.430000,80.230000,145.430000,78.770000Q145.430000,69.680000,145.430000,60.580000C145.455640,59.856790,145.364470,59.134178,145.160000,58.440000C144.922297,57.380158,144.005006,56.610289,142.920000,56.560000C141.852791,56.761488,141.016555,57.593760,140.810000,58.660000C140.750130,59.043571,140.730024,59.432299,140.750000,59.820000Q140.750000,86.960000,140.750000,114.080000C140.748180,114.972716,140.900413,115.859052,141.200000,116.700000C141.368595,117.174246,141.646016,117.602366,142.010000,117.950000C142.442444,118.445168,143.112610,118.661661,143.753016,118.513070C144.393422,118.364479,144.899785,117.875001,145.070000,117.240000C145.348392,116.392228,145.473679,115.501675,145.440000,114.610000C145.440000,108.610000,145.440000,102.700000,145.440000,96.740000C145.440000,96.350000,145.440000,95.960000,145.440000,95.580000C145.440000,95.200000,145.680000,94.890000,146.150000,94.920000C146.620000,94.950000,146.820000,94.920000,147.150000,94.920000L169.680000,94.920000C170.020000,94.920000,170.350000,94.920000,170.680000,94.920000C171.230000,94.920000,171.520000,95.110000,171.490000,95.690000C171.490000,96.080000,171.490000,96.470000,171.490000,96.860000C171.490000,102.260000,171.490000,107.660000,171.490000,113.060000C171.476714,115.339391,171.302951,117.615018,170.970000,119.870000C170.826875,120.967990,170.488191,122.031457,169.970000,123.010000C168.026505,126.740484,165.083432,129.856679,161.470000,132.010000C154.704131,136.193255,146.717390,137.952806,138.820000,137C134.331954,136.574740,129.973702,135.259106,126,133.130000C122.902186,131.477586,120.149316,129.247456,117.890000,126.560000C115.570843,123.818155,114.339546,120.319989,114.430000,116.730000Q114.390000,102.890000,114.400000,89Z" transform="matrix(1 0 0 1 -70.52000000000000 -15)" opacity="0" fill="rgb(0,0,0)" stroke="none" stroke-width="1"/><path id="eLnPEA5BhOr3" d="M106.600000,82.860000C106.600000,95.770000,106.490000,108.670000,106.600000,121.580000C106.710000,130.210000,99.600000,134.330000,93.870000,134.350000C86.530000,134.350000,79.180000,134.350000,71.870000,134.350000C70.560000,134.350000,70.530000,134.350000,70.530000,133.130000C70.530000,128.230000,70.530000,123.340000,70.530000,118.440000C70.530000,117.610000,70.710000,117.200000,71.620000,117.310000C72.176262,117.340029,72.733738,117.340029,73.290000,117.310000C76.884526,117.330136,79.910058,114.624447,80.290000,111.050000C80.488217,109.280398,80.581713,107.500630,80.570000,105.720000Q80.570000,74.510000,80.570000,43.300000C80.570000,41.500000,80.570000,41.500000,82.300000,41.500000L105.830000,41.500000C106.380000,41.500000,106.650000,41.710000,106.620000,42.280000C106.620000,42.670000,106.620000,43.060000,106.620000,43.450000Z" transform="matrix(1 0 0 1 -70.52000000000000 -15)" opacity="0" fill="rgb(0,0,0)" stroke="none" stroke-width="1"/><path id="eLnPEA5BhOr4" d="M313.910000,55.350000C316.742654,54.757632,319.646678,54.582447,322.530000,54.830000C327.460000,55.270000,332.370000,55.940000,337.330000,56C339.159281,56.021761,340.977772,55.716986,342.700000,55.100000C350.630000,52.280000,354.510000,41.720000,346.630000,34.590000C342.630000,30.980000,337.870000,29.970000,332.630000,31.130000C331.930000,31.290000,331.370000,31.540000,330.810000,30.670000C327.190000,25.050000,317.340000,24.920000,312.910000,28.370000C313.576744,28.416785,314.246427,28.400043,314.910000,28.320000C316.930724,27.890121,319.019276,27.890121,321.040000,28.320000C324.690000,29.180000,327.820000,30.780000,329.640000,34.320000C330.200000,35.400000,330.200000,35.400000,331.510000,35.110000C334.727187,34.256019,338.156055,34.820217,340.930000,36.660000C343.706760,38.361867,345.300459,41.472089,345.060000,44.720000C344.772690,49.547533,340.935858,53.405801,336.110000,53.720000C333.558373,53.928464,330.992305,53.881564,328.450000,53.580000C325.670000,53.340000,322.890000,53.270000,320.110000,53.250000C318.103068,53.252038,316.115859,53.646083,314.260000,54.410000C313.990000,54.510000,313.720000,54.860000,313.380000,54.670000Z" transform="matrix(1 0 0 1 -84.42424132500001 -15)" opacity="0" fill="rgb(0,0,0)" stroke="none" stroke-width="1"/><path id="eLnPEA5BhOr5" d="M283.490000,25.880000C283.160000,25.810000,283.020000,25.510000,282.690000,24.760000C281.227322,21.305789,278.384731,18.622114,274.852174,17.360351C271.319618,16.098587,267.420063,16.374094,264.100000,18.120000C263.509920,18.514504,262.725363,18.448087,262.210000,17.960000C255.876314,13.167406,246.865679,14.362285,242,20.640000L242,20.850000C242.500000,20.850000,242.760000,20.440000,243.130000,20.220000C247.634596,17.314937,253.407602,17.256585,257.970000,20.070000C260.472169,21.500015,262.337934,23.826861,263.190000,26.580000C265.535076,23.993025,268.950051,22.644036,272.430000,22.930000C275.852838,23.149071,278.940394,25.062380,280.660000,28.030000Z" transform="matrix(1 0 0 1 -84.42424132500001 -15)" opacity="0" fill="rgb(0,0,0)" stroke="none" stroke-width="1"/><path id="eLnPEA5BhOr6" d="M265,57.860000C264.785406,58.001922,264.612754,58.198745,264.500000,58.430000C262.307856,61.905068,258.726872,64.269319,254.670000,64.920000C249.685317,65.825066,244.595846,66.003585,239.560000,65.450000C236.280102,65.298629,232.993518,65.509909,229.760000,66.080000C221.150271,67.263921,212.875748,70.204763,205.450000,74.720000C200.703681,77.615696,196.602355,81.454946,193.400000,86C193.080000,86.080000,193.980000,84.920000,194.080000,84.600000C195.115674,82.198804,196.541607,79.985567,198.300000,78.050000C200.716182,75.202552,203.532086,72.720110,206.660000,70.680000C212.514821,66.823408,218.984111,63.992883,225.790000,62.310000C230.843152,60.950956,236.070342,60.351059,241.300000,60.530000C244.908798,60.713239,248.523255,60.304501,252,59.320000C254.391587,58.750787,256.568455,57.504382,258.270000,55.730000C260.164954,53.738304,260.699011,50.812769,259.630000,48.280000C258.560000,45.530000,256.350000,44.170000,253.630000,43.640000C252.271111,43.318809,250.866060,43.240939,249.480000,43.410000C248.690000,43.540000,248.380000,43.250000,248.300000,42.480000C248.071030,40.471527,247.273054,38.570263,246,37C244.129289,34.424460,241.025464,33.044135,237.860000,33.380000C232.950000,33.780000,229.920000,36.660000,228.120000,41.060000C227.830000,41.770000,227.760000,42.760000,227.240000,43.160000C226.720000,43.560000,225.850000,42.790000,225.110000,42.630000C222.937342,42.110042,220.672658,42.110042,218.500000,42.630000C215.789006,43.217515,213.504314,45.030179,212.315740,47.536562C211.127166,50.042945,211.169378,52.959070,212.430000,55.430000C212.780000,56.180000,213.210000,56.880000,213.580000,57.580000C213.410000,58.110000,212.930000,58.070000,212.580000,58.190000C207.910000,59.950000,203.310000,61.910000,198.740000,63.910000C191.578030,66.957923,185.362808,71.867948,180.740000,78.130000C179.520000,79.780000,177.010000,82.740000,175.740000,84.380000C175.410000,84.380000,176.480000,83,176.620000,82.620000C177.635444,79.437645,179.082239,76.409470,180.920000,73.620000C185.892925,65.646099,192.992576,59.218317,201.420000,55.060000C202.820000,54.360000,202.810000,54.350000,202.620000,52.830000C202.162703,48.970637,203.353943,45.097349,205.900978,42.161977C208.448013,39.226604,212.114711,37.501282,216,37.410000C217.450297,37.350076,218.898114,37.577784,220.260000,38.080000C221.180000,38.440000,221.470000,38.170000,221.830000,37.350000C223.710168,32.832817,227.213455,29.183262,231.650000,27.120000C234.890554,25.561677,238.588055,25.238146,242.050000,26.210000C243.919910,26.779991,245.597510,27.852272,246.900000,29.310000C249.102878,31.615926,250.619605,34.490089,251.280000,37.610000C251.480000,38.500000,251.820000,38.760000,252.700000,38.770000C254.982364,38.799869,257.237294,39.271910,259.340000,40.160000C259.531925,40.256283,259.745564,40.301078,259.960000,40.290000L263.380000,42.290000C263.390969,42.597273,263.515705,42.889513,263.730000,43.110000C265.532974,45.467362,266.490969,48.362477,266.450000,51.330000C266.475961,52.344850,266.340954,53.357405,266.050000,54.330000C265.930677,54.617504,265.889285,54.931392,265.930000,55.240000Z" transform="matrix(1 0 0 1 -84.42424132500001 -15)" opacity="0" fill="rgb(0,0,0)" stroke="none" stroke-width="1"/><path id="eLnPEA5BhOr7" d="M265,57.860000C265.302982,57.746147,265.641217,57.775559,265.920000,57.940000C268.881743,59.201570,272.249897,59.088078,275.120000,57.630000C275.850000,57.270000,276.210000,57.270000,276.740000,57.980000C278.243473,60.057717,280.561937,61.395333,283.113191,61.656951C285.664444,61.918569,288.206133,61.079337,290.100000,59.350000C291.993867,57.620663,290.160000,59.300000,290.180000,59.220000C290.200000,59.140000,290.180000,59.070000,290.050000,59.010000C288.129139,59.610282,286.070861,59.610282,284.150000,59.010000C281.353701,58.140929,279.224388,55.859522,278.550000,53.010000C278.010000,53.010000,277.730000,53.420000,277.390000,53.670000C274.934221,55.431403,271.982034,56.366437,268.960000,56.340000C268.235408,56.384055,267.509660,56.275023,266.830000,56.020000C266.300000,55.790000,266.020000,55.580000,265.930000,55.260000Z" transform="matrix(1 0 0 1 -84.42424132500001 -15)" opacity="0" fill="rgb(0,0,0)" stroke="none" stroke-width="1"/><path id="eLnPEA5BhOr8" d="M263.330000,42.330000C263.390291,42.049974,263.559356,41.805370,263.800000,41.650000C265.831991,39.874242,268.488002,38.981707,271.180000,39.170000C273.986546,39.243160,276.695745,40.213986,278.910000,41.940000C279.156427,41.745584,279.306081,41.453576,279.320000,41.140000C279.742429,39.116343,280.655904,37.227578,281.980000,35.640000C285.690000,31.180000,290.980000,31.210000,294.480000,34.820000C296.167589,36.534089,297.294081,38.720808,297.710000,41.090000C297.870000,41.990000,298.240000,42.290000,299.110000,42.290000C300.498992,42.301704,301.853098,42.726386,303,43.510000C305.049275,44.897674,306.436674,47.067997,306.835874,49.510496C307.235074,51.952996,306.610842,54.452098,305.110000,56.420000C301.329692,61.514102,295.884398,65.123069,289.720000,66.620000C286.762359,67.357355,283.742809,67.819326,280.700000,68C275.650000,68.360000,270.600000,68.630000,265.550000,69C263.550000,69.150000,261.550000,69.300000,259.550000,69.310000C251.652044,69.255140,243.765694,69.924610,235.990000,71.310000C232.800379,71.805916,229.719204,72.844248,226.880000,74.380000C226.757239,74.450728,226.640214,74.530974,226.530000,74.620000L226.530000,74.620000C226.470000,74.920000,223.990000,76.880000,224.330000,76.780000C224.440000,76.780000,227.100000,74.910000,227.210000,74.880000L227.610000,74.670000C230.219606,73.773287,232.894107,73.077917,235.610000,72.590000C241.520000,71.590000,247.470000,71.840000,253.420000,72C262.150000,72.230000,270.880000,72.460000,279.590000,71.600000C282.964986,71.347718,286.311225,70.798935,289.590000,69.960000C294.636398,68.606334,299.513924,66.687527,304.130000,64.240000C307.710000,62.240000,311.130000,60.060000,313.040000,56.240000C313.158573,56.001121,313.337909,55.797643,313.560000,55.650000L314.160000,54.530000C314.227237,53.951796,314.340938,53.379947,314.500000,52.820000C315.664633,48.742662,314.882847,44.356043,312.381328,40.932089C309.879809,37.508135,305.938418,35.429904,301.700000,35.300000C300.931364,35.374023,300.228042,34.863686,300.060000,34.110000C297.702105,27.860606,291.112591,24.291108,284.590000,25.730000C284.234028,25.839929,283.862408,25.890605,283.490000,25.880000L280.590000,28C278.147313,29.387801,276.178660,31.478406,274.940000,34C274.260000,35.430000,273.450000,35.650000,272.050000,35.620000C267.650000,35.530000,263.500000,36.300000,260.450000,39.910000C260.318878,40.086903,260.126199,40.208219,259.910000,40.250000Z" transform="matrix(1 0 0 1 -84.42424132500001 -15)" opacity="0" fill="rgb(0,0,0)" stroke="none" stroke-width="1"/><path id="eLnPEA5BhOr9" d="M313.070000,55.350000C312.678165,55.400535,312.300596,55.529793,311.960000,55.730000" transform="matrix(1 0 0 1 -70.52000000000000 -15)" fill="rgb(0,0,0)" stroke="none" stroke-width="1"/><path id="eLnPEA5BhOr10" d="M256.730000,110.160000C257.496396,110.123718,258.263497,110.214959,259,110.430000C259.974901,110.627870,260.806719,111.258758,261.260139,112.144192C261.713560,113.029627,261.739271,114.073313,261.330000,114.980000Q258.690000,122.980000,256.060000,130.980000C255.820000,131.720000,255.520000,132.440000,255.350000,133.200000C255.334411,133.505583,255.188744,133.789872,254.949813,133.981017C254.710883,134.172161,254.401552,134.251871,254.100000,134.200000C250.600000,134.200000,247.100000,134.200000,243.600000,134.200000C243.491627,133.756311,243.555973,133.288016,243.780000,132.890000Q246.500000,124.660000,249.210000,116.430000C249.545312,115.599225,249.545312,114.670775,249.210000,113.840000C249.069645,113.299473,248.555488,112.942538,248,113C246.857887,113.127074,245.920100,113.960662,245.660000,115.080000C244.660000,117.960000,243.660000,120.850000,242.610000,123.730000C241.500000,126.870000,240.360000,130,239.290000,133.160000C239.161944,133.940239,238.432410,134.474045,237.650000,134.360000C233.990000,134.290000,230.320000,134.360000,226.710000,134.360000C226.390000,133.800000,226.710000,133.360000,226.810000,133Q234.530000,110.290000,242.270000,87.570000C242.710000,86.280000,242.710000,86.280000,244.130000,86.270000C249.300000,86.270000,254.480000,86.210000,259.650000,86.270000C260.817884,86.294774,261.981776,86.415177,263.130000,86.630000C265.720000,87.070000,267.130000,88.750000,267.970000,91.150000C268.490029,92.919246,268.490029,94.800754,267.970000,96.570000C267.494656,98.742783,266.852760,100.875750,266.050000,102.950000C265.477809,104.403001,264.609384,105.720963,263.500000,106.820000C262.064090,108.344128,260.004492,109.119246,257.920000,108.920000C256.870000,108.790000,256.870000,108.820000,256.730000,110.160000Z" transform="matrix(1 0 0 1 -70.52000000000000 -15)" opacity="0" fill="rgb(0,0,0)" stroke="none" stroke-width="1"/><path id="eLnPEA5BhOr11" d="M216.580000,86.250000C216.070000,88.890000,215.580000,91.560000,215.050000,94.250000Q211.790000,111.110000,208.530000,127.960000Q207.990000,130.730000,207.480000,133.530000C207.370000,134.120000,207.240000,134.530000,206.480000,134.530000C202.370000,134.530000,198.260000,134.530000,193.960000,134.530000L197.250000,125.840000C195.600000,125.840000,194.120000,125.840000,192.650000,125.840000C191.974177,125.729067,191.330771,126.169756,191.190000,126.840000C190.410000,128.970000,189.500000,131.060000,188.750000,133.210000C188.569551,134.041512,187.769871,134.586349,186.930000,134.450000C183.150000,134.390000,179.380000,134.450000,175.650000,134.450000C175.330000,134.040000,175.560000,133.770000,175.710000,133.450000C183.280000,118.110000,190.710000,102.700000,198.380000,87.450000C198.641954,86.516816,199.535337,85.905775,200.500000,86C205.340000,86.060000,210.180000,86,215.020000,86C215.552997,85.942452,216.091678,86.028779,216.580000,86.250000Z" transform="matrix(1 0 0 1 -70.52000000000000 -15.17999390000000)" opacity="0" fill="rgb(0,0,0)" stroke="none" stroke-width="1"/><path id="eLnPEA5BhOr12" d="M297.750000,86.270000C296.390000,89.330000,295.140000,92.110000,293.930000,94.900000C293.719365,95.431035,293.161086,95.737459,292.600000,95.630000C290.710000,95.630000,288.820000,95.630000,286.930000,95.630000C285.560000,95.630000,285.550000,95.630000,285.060000,96.960000C284.210000,99.250000,283.370000,101.550000,282.530000,103.840000C282.420000,104.140000,282.350000,104.450000,282.210000,104.930000L290.690000,104.930000C291.100000,105.480000,290.740000,105.810000,290.620000,106.130000C289.720000,108.450000,288.730000,110.750000,287.870000,113.130000C287.689465,113.968040,286.887296,114.520352,286.040000,114.390000C284.040000,114.310000,282.040000,114.390000,280.040000,114.390000C279.420000,114.390000,279.040000,114.500000,278.760000,115.160000C277.640000,118.350000,276.470000,121.510000,275.260000,124.840000L285,124.840000C285.115881,125.308478,285.044111,125.803694,284.800000,126.220000Q283.540000,129.840000,282.290000,133.450000C282.080000,134.080000,281.820000,134.450000,281.020000,134.450000C273.850000,134.450000,266.670000,134.450000,259.530000,134.450000C259.190000,133.860000,259.580000,133.450000,259.730000,132.980000Q267.460000,110.380000,275.230000,87.770000C275.710000,86.370000,275.710000,86.360000,277.180000,86.360000L297.780000,86.360000Z" transform="matrix(1 0 0 1 -70.52000000000000 -15)" opacity="0" fill="rgb(0,0,0)" stroke="none" stroke-width="1"/><path id="eLnPEA5BhOr13" d="M209.200000,134.210000C209,133.670000,209.330000,133.210000,209.490000,132.780000Q217.230000,110.190000,224.990000,87.600000C225.440000,86.280000,225.450000,86.270000,226.840000,86.270000L236.510000,86.270000C236.983907,86.196530,237.468948,86.269810,237.900000,86.480000C236.900000,89.480000,235.850000,92.560000,234.820000,95.590000Q228.510000,114.190000,222.160000,132.770000C221.580000,134.450000,222.030000,134.360000,220,134.360000C216.890000,134.360000,213.770000,134.360000,210.660000,134.360000C210.168982,134.450117,209.662437,134.398074,209.200000,134.210000Z" transform="matrix(1 0 0 1 -70.52000000000000 -15)" opacity="0" fill="rgb(0,0,0)" stroke="none" stroke-width="1"/><path id="eLnPEA5BhOr14" d="M261.660000,78.070000C264.944293,77.007933,268.368638,76.441702,271.820000,76.390000C276.350000,76.120000,280.820000,76.910000,285.250000,77.510000C291.310000,78.310000,297.360000,79.220000,303.470000,79.580000C307.530572,79.672489,311.589601,79.337309,315.580000,78.580000C318.434553,78.150440,321.210728,77.304785,323.820000,76.070000C328.450000,73.870000,329.070000,68.070000,326.600000,64.180000C325.256177,62.263395,322.872703,61.369593,320.600000,61.930000C318.439334,62.271051,316.789233,64.040784,316.600000,66.220000C316.190905,68.459168,317.459324,70.666217,319.600000,71.440000L320.730000,71.930000C318.470000,73.450000,316.210000,73.870000,313.790000,72.580000C311.716333,71.278117,310.555220,68.917185,310.790000,66.480000C310.928121,65.715596,311.220756,64.987411,311.650000,64.340000C314.359990,60.033612,319.355706,57.731818,324.390000,58.470000C326.545016,58.752788,328.601731,59.544623,330.390000,60.780000C336.260000,64.970000,336.060000,73.780000,330.290000,78.090000C327.134672,80.341602,323.486474,81.805681,319.650000,82.360000C314.727378,83.275443,309.726608,83.704177,304.720000,83.640000C301.109663,83.483517,297.519622,83.015106,293.990000,82.240000C287.830000,81.040000,281.680000,79.780000,275.480000,78.820000C271.335506,78.250553,267.143355,78.109809,262.970000,78.400000C262.546183,78.418363,262.127823,78.502709,261.730000,78.650000C260.520000,79.060000,258.580000,79.750000,261.660000,78.070000Z" transform="matrix(1 0 0 1 -84.42424132500001 -15)" opacity="0" fill="rgb(0,0,0)" stroke="none" stroke-width="1"/><path id="eLnPEA5BhOr15" d="" transform="matrix(1 0 0 1 -70.52000000000000 -15)" fill="rgb(67,46,46)" stroke="none" stroke-width="1"/><path id="eLnPEA5BhOr16" d="" transform="matrix(1 0 0 1 -70.52000000000000 -15)" fill="rgb(67,46,46)" stroke="none" stroke-width="1"/><path id="eLnPEA5BhOr17" d="M288.380000,59.350000L288.320000,59.010000" transform="matrix(1 0 0 1 -70.52000000000000 -15)" fill="rgb(146,127,127)" stroke="none" stroke-width="1"/><path id="eLnPEA5BhOr18" d="M250.810000,105.130000C250.480000,105.130000,250.150000,105.130000,249.810000,105.070000C249.310000,105.070000,249.140000,104.750000,249.260000,104.280000C249.260000,104.120000,249.350000,103.960000,249.400000,103.800000C250.400000,101.150000,251.290000,98.490000,252.250000,95.800000C252.630000,94.800000,253.170000,94.460000,254.130000,94.610000C254.609148,94.621490,255.053068,94.864299,255.321215,95.261555C255.589363,95.658810,255.648536,96.161323,255.480000,96.610000C254.690000,99.090000,253.810000,101.530000,252.970000,103.990000C252.610000,105.120000,251.740000,105.190000,250.810000,105.130000Z" transform="matrix(1 0 0 1 -70.52000000000000 -15)" opacity="0" fill="rgb(254,254,254)" stroke="none" stroke-width="1"/><path id="eLnPEA5BhOr19" d="M203.220000,100.480000Q201.800000,106.200000,200.350000,111.900000C200,113.300000,199.600000,114.680000,199.270000,116.080000C199.150000,116.610000,198.920000,116.820000,198.380000,116.800000C197.440000,116.800000,196.500000,116.800000,195.290000,116.800000C197.810000,110.990000,200.290000,105.350000,202.860000,99.800000C203.510000,99.740000,203.320000,100.130000,203.220000,100.480000Z" transform="matrix(1 0 0 1 -70.52000000000000 -15)" opacity="0" fill="rgb(253,253,253)" stroke="none" stroke-width="1"/><script><![CDATA[!function(t,n){"object"==typeof exports&&"undefined"!=typeof module?module.exports=n():"function"==typeof define&&define.amd?define(n):(t="undefined"!=typeof globalThis?globalThis:t||self).__SVGATOR_PLAYER__=n()}(this,(function(){"use strict";function t(n){return(t="function"==typeof Symbol&&"symbol"==typeof Symbol.iterator?function(t){return typeof t}:function(t){return t&&"function"==typeof Symbol&&t.constructor===Symbol&&t!==Symbol.prototype?"symbol":typeof t})(n)}function n(t,n){if(!(t instanceof n))throw new TypeError("Cannot call a class as a function")}function r(t,n){for(var r=0;r<n.length;r++){var e=n[r];e.enumerable=e.enumerable||!1,e.configurable=!0,"value"in e&&(e.writable=!0),Object.defineProperty(t,e.key,e)}}function e(t,n,e){return n&&r(t.prototype,n),e&&r(t,e),t}function i(t){return(i=Object.setPrototypeOf?Object.getPrototypeOf:function(t){return t.__proto__||Object.getPrototypeOf(t)})(t)}function o(t,n){return(o=Object.setPrototypeOf||function(t,n){return t.__proto__=n,t})(t,n)}function u(t,n){return!n||"object"!=typeof n&&"function"!=typeof n?function(t){if(void 0===t)throw new ReferenceError("this hasn't been initialised - super() hasn't been called");return t}(t):n}function a(t){var n=function(){if("undefined"==typeof Reflect||!Reflect.construct)return!1;if(Reflect.construct.sham)return!1;if("function"==typeof Proxy)return!0;try{return Boolean.prototype.valueOf.call(Reflect.construct(Boolean,[],(function(){}))),!0}catch(t){return!1}}();return function(){var r,e=i(t);if(n){var o=i(this).constructor;r=Reflect.construct(e,arguments,o)}else r=e.apply(this,arguments);return u(this,r)}}function l(t,n,r){return(l="undefined"!=typeof Reflect&&Reflect.get?Reflect.get:function(t,n,r){var e=function(t,n){for(;!Object.prototype.hasOwnProperty.call(t,n)&&null!==(t=i(t)););return t}(t,n);if(e){var o=Object.getOwnPropertyDescriptor(e,n);return o.get?o.get.call(r):o.value}})(t,n,r||t)}var f=Math.abs;function s(t){return t}function c(t,n,r){var e=1-r;return 3*r*e*(t*e+n*r)+r*r*r}function h(){var t=arguments.length>0&&void 0!==arguments[0]?arguments[0]:0,n=arguments.length>1&&void 0!==arguments[1]?arguments[1]:0,r=arguments.length>2&&void 0!==arguments[2]?arguments[2]:1,e=arguments.length>3&&void 0!==arguments[3]?arguments[3]:1;return t<0||t>1||r<0||r>1?null:f(t-n)<=1e-5&&f(r-e)<=1e-5?s:function(i){if(i<=0)return t>0?i*n/t:0===n&&r>0?i*e/r:0;if(i>=1)return r<1?1+(i-1)*(e-1)/(r-1):1===r&&t<1?1+(i-1)*(n-1)/(t-1):1;for(var o,u=0,a=1;u<a;){var l=c(t,r,o=(u+a)/2);if(f(i-l)<1e-5)break;l<i?u=o:a=o}return c(n,e,o)}}function v(){return 1}function y(t){return 1===t?1:0}function d(){var t=arguments.length>0&&void 0!==arguments[0]?arguments[0]:1,n=arguments.length>1&&void 0!==arguments[1]?arguments[1]:0;if(1===t){if(0===n)return y;if(1===n)return v}var r=1/t;return function(t){return t>=1?1:(t+=n*r)-t%r}}function g(t){var n=arguments.length>1&&void 0!==arguments[1]?arguments[1]:2;if(Number.isInteger(t))return t;var r=Math.pow(10,n);return Math.round(t*r)/r}var p=Math.PI/180;function m(t,n,r){return t>=.5?r:n}function b(t,n,r){return 0===t||n===r?n:t*(r-n)+n}function w(t,n,r){var e=b(t,n,r);return e<=0?0:e}function x(t,n,r){return 0===t?n:1===t?r:{x:b(t,n.x,r.x),y:b(t,n.y,r.y)}}function k(t,n,r){var e=function(t,n,r){return Math.round(b(t,n,r))}(t,n,r);return e<=0?0:e>=255?255:e}function A(t,n,r){return 0===t?n:1===t?r:{r:k(t,n.r,r.r),g:k(t,n.g,r.g),b:k(t,n.b,r.b),a:b(t,null==n.a?1:n.a,null==r.a?1:r.a)}}function _(t,n,r){if(0===t)return n;if(1===t)return r;var e=n.length;if(e!==r.length)return m(t,n,r);for(var i=[],o=0;o<e;o++)i.push(A(t,n[o],r[o]));return i}function S(t,n){for(var r=[],e=0;e<t;e++)r.push(n);return r}function O(t,n){if(--n<=0)return t;var r=(t=Object.assign([],t)).length;do{for(var e=0;e<r;e++)t.push(t[e])}while(--n>0);return t}var M,j=function(){function t(r){n(this,t),this.list=r,this.length=r.length}return e(t,[{key:"setAttribute",value:function(t,n){for(var r=this.list,e=0;e<this.length;e++)r[e].setAttribute(t,n)}},{key:"removeAttribute",value:function(t){for(var n=this.list,r=0;r<this.length;r++)n[r].removeAttribute(t)}},{key:"style",value:function(t,n){for(var r=this.list,e=0;e<this.length;e++)r[e].style[t]=n}}]),t}(),F=/-./g,P=function(t,n){return n.toUpperCase()};function B(t){return"function"==typeof t?t:m}function I(t){return t?"function"==typeof t?t:Array.isArray(t)?function(t){var n=arguments.length>1&&void 0!==arguments[1]?arguments[1]:s;if(!Array.isArray(t))return n;switch(t.length){case 1:return d(t[0])||n;case 2:return d(t[0],t[1])||n;case 4:return h(t[0],t[1],t[2],t[3])||n}return n}(t,null):function(t,n){var r=arguments.length>2&&void 0!==arguments[2]?arguments[2]:s;switch(t){case"linear":return s;case"steps":return d(n.steps||1,n.jump||0)||r;case"bezier":case"cubic-bezier":return h(n.x1||0,n.y1||0,n.x2||0,n.y2||0)||r}return r}(t.type,t.value,null):null}function R(t,n,r){var e=arguments.length>3&&void 0!==arguments[3]&&arguments[3],i=n.length-1;if(t<=n[0].t)return e?[0,0,n[0].v]:n[0].v;if(t>=n[i].t)return e?[i,1,n[i].v]:n[i].v;var o,u=n[0],a=null;for(o=1;o<=i;o++){if(!(t>n[o].t)){a=n[o];break}u=n[o]}return null==a?e?[i,1,n[i].v]:n[i].v:u.t===a.t?e?[o,1,a.v]:a.v:(t=(t-u.t)/(a.t-u.t),u.e&&(t=u.e(t)),e?[o,t,r(t,u.v,a.v)]:r(t,u.v,a.v))}function q(t,n){var r=arguments.length>2&&void 0!==arguments[2]?arguments[2]:null;return t&&t.length?"function"!=typeof n?null:("function"!=typeof r&&(r=null),function(e){var i=R(e,t,n);return null!=i&&r&&(i=r(i)),i}):null}function E(t,n){return t.t-n.t}function T(n,r,e,i,o){var u,a="@"===e[0],l="#"===e[0],f=M[e],s=m;switch(a?(u=e.substr(1),e=u.replace(F,P)):l&&(e=e.substr(1)),t(f)){case"function":if(s=f(i,o,R,I,e,a,r,n),l)return s;break;case"string":s=q(i,B(f));break;case"object":if((s=q(i,B(f.i),f.f))&&"function"==typeof f.u)return f.u(r,s,e,a,n)}return s?function(t,n,r){var e=arguments.length>3&&void 0!==arguments[3]&&arguments[3];if(e)return t instanceof j?function(e){return t.style(n,r(e))}:function(e){return t.style[n]=r(e)};if(Array.isArray(n)){var i=n.length;return function(e){var o=r(e);if(null==o)for(var u=0;u<i;u++)t[u].removeAttribute(n);else for(var a=0;a<i;a++)t[a].setAttribute(n,o)}}return function(e){var i=r(e);null==i?t.removeAttribute(n):t.setAttribute(n,i)}}(r,e,s,a):null}function N(n,r,e,i){if(!i||"object"!==t(i))return null;var o=null,u=null;return Array.isArray(i)?u=function(t){if(!t||!t.length)return null;for(var n=0;n<t.length;n++)t[n].e&&(t[n].e=I(t[n].e));return t.sort(E)}(i):(u=i.keys,o=i.data||null),u?T(n,r,e,u,o):null}function C(t,n,r){if(!r)return null;var e=[];for(var i in r)if(r.hasOwnProperty(i)){var o=N(t,n,i,r[i]);o&&e.push(o)}return e.length?e:null}function z(t,n){if(!n.duration||n.duration<0)return null;var r=function(t,n){if(!n)return null;var r=[];if(Array.isArray(n))for(var e=n.length,i=0;i<e;i++){var o=n[i];if(2===o.length){var u=null;if("string"==typeof o[0])u=t.getElementById(o[0]);else if(Array.isArray(o[0])){u=[];for(var a=0;a<o[0].length;a++)if("string"==typeof o[0][a]){var l=t.getElementById(o[0][a]);l&&u.push(l)}u=u.length?1===u.length?u[0]:new j(u):null}if(u){var f=C(t,u,o[1]);f&&(r=r.concat(f))}}}else for(var s in n)if(n.hasOwnProperty(s)){var c=t.getElementById(s);if(c){var h=C(t,c,n[s]);h&&(r=r.concat(h))}}return r.length?r:null}(t,n.elements);return r?function(t,n){var r=arguments.length>2&&void 0!==arguments[2]?arguments[2]:1/0,e=arguments.length>3&&void 0!==arguments[3]?arguments[3]:1,i=arguments.length>4&&void 0!==arguments[4]&&arguments[4],o=arguments.length>5&&void 0!==arguments[5]?arguments[5]:1,u=t.length,a=e>0?n:0;i&&r%2==0&&(a=n-a);var l=null;return function(f,s){var c=f%n,h=1+(f-c)/n;s*=e,i&&h%2==0&&(s=-s);var v=!1;if(h>r)c=a,v=!0,-1===o&&(c=e>0?0:n);else if(s<0&&(c=n-c),c===l)return!1;l=c;for(var y=0;y<u;y++)t[y](c);return v}}(r,n.duration,n.iterations||1/0,n.direction||1,!!n.alternate,n.fill||1):null}var L=function(){function t(r,e){var i=arguments.length>2&&void 0!==arguments[2]?arguments[2]:{};n(this,t),this._id=0,this._running=!1,this._rollingBack=!1,this._animations=r,this.duration=e.duration,this.alternate=e.alternate,this.fill=e.fill,this.iterations=e.iterations,this.direction=i.direction||1,this.speed=i.speed||1,this.fps=i.fps||100,this.offset=i.offset||0,this.rollbackStartOffset=0}return e(t,[{key:"_rollback",value:function(){var t=this,n=1/0,r=null;this.rollbackStartOffset=this.offset,this._rollingBack||(this._rollingBack=!0,this._running=!0);this._id=window.requestAnimationFrame((function e(i){if(t._rollingBack){null==r&&(r=i);var o=i-r,u=t.rollbackStartOffset-o,a=Math.round(u*t.speed);if(a>t.duration&&n!=1/0){var l=!!t.alternate&&a/t.duration%2>1,f=a%t.duration;a=(f+=l?t.duration:0)||t.duration}var s=t.fps?1e3/t.fps:0,c=Math.max(0,a);if(c<n-s){t.offset=c,n=c;for(var h=t._animations,v=h.length,y=0;y<v;y++)h[y](c,t.direction)}var d=!1;if(t.iterations>0&&-1===t.fill){var g=t.iterations*t.duration,p=g==a;a=p?0:a,t.offset=p?0:t.offset,d=a>g}a>0&&t.offset>=a&&!d?t._id=window.requestAnimationFrame(e):t.stop()}}))}},{key:"_start",value:function(){var t=this,n=arguments.length>0&&void 0!==arguments[0]?arguments[0]:0,r=-1/0,e=null,i={},o=function o(u){t._running=!0,null==e&&(e=u);var a=Math.round((u-e+n)*t.speed),l=t.fps?1e3/t.fps:0;if(a>r+l&&!t._rollingBack){t.offset=a,r=a;for(var f=t._animations,s=f.length,c=0,h=0;h<s;h++)i[h]?c++:(i[h]=f[h](a,t.direction),i[h]&&c++);if(c===s)return void t._stop()}t._id=window.requestAnimationFrame(o)};this._id=window.requestAnimationFrame(o)}},{key:"_stop",value:function(){this._id&&window.cancelAnimationFrame(this._id),this._running=!1,this._rollingBack=!1}},{key:"play",value:function(){!this._rollingBack&&this._running||(this._rollingBack=!1,this.rollbackStartOffset>this.duration&&(this.offset=this.rollbackStartOffset-(this.rollbackStartOffset-this.offset)%this.duration,this.rollbackStartOffset=0),this._start(this.offset))}},{key:"stop",value:function(){this._stop(),this.offset=0,this.rollbackStartOffset=0;var t=this.direction,n=this._animations;window.requestAnimationFrame((function(){for(var r=0;r<n.length;r++)n[r](0,t)}))}},{key:"reachedToEnd",value:function(){return this.iterations>0&&this.offset>=this.iterations*this.duration}},{key:"restart",value:function(){this._stop(),this.offset=0,this._start()}},{key:"pause",value:function(){this._stop()}},{key:"reverse",value:function(){this.direction=-this.direction}}],[{key:"build",value:function(n,r){return(n=function(t,n){if(M=n,!t||!t.root||!Array.isArray(t.animations))return null;for(var r=document.getElementsByTagName("svg"),e=!1,i=0;i<r.length;i++)if(r[i].id===t.root&&!r[i].svgatorAnimation){(e=r[i]).svgatorAnimation=!0;break}if(!e)return null;var o=t.animations.map((function(t){return z(e,t)})).filter((function(t){return!!t}));return o.length?{element:e,animations:o,animationSettings:t.animationSettings,options:t.options||void 0}:null}(n,r))?{el:n.element,options:n.options||{},player:new t(n.animations,n.animationSettings,n.options)}:null}}]),t}();!function(){for(var t=0,n=["ms","moz","webkit","o"],r=0;r<n.length&&!window.requestAnimationFrame;++r)window.requestAnimationFrame=window[n[r]+"RequestAnimationFrame"],window.cancelAnimationFrame=window[n[r]+"CancelAnimationFrame"]||window[n[r]+"CancelRequestAnimationFrame"];window.requestAnimationFrame||(window.requestAnimationFrame=function(n){var r=Date.now(),e=Math.max(0,16-(r-t)),i=window.setTimeout((function(){n(r+e)}),e);return t=r+e,i},window.cancelAnimationFrame=window.clearTimeout)}();var D=/\.0+$/g;function Q(t){return Number.isInteger(t)?t+"":t.toFixed(6).replace(D,"")}function U(t){var n=arguments.length>1&&void 0!==arguments[1]?arguments[1]:" ";return t&&t.length?t.map(Q).join(n):""}function V(t){return t?null==t.a||t.a>=1?"rgb("+t.r+","+t.g+","+t.b+")":"rgba("+t.r+","+t.g+","+t.b+","+t.a+")":"transparent"}var $={f:null,i:function(t,n,r){return 0===t?n:1===t?r:{x:w(t,n.x,r.x),y:w(t,n.y,r.y)}},u:function(t,n){return function(r){var e=n(r);t.setAttribute("rx",Q(e.x)),t.setAttribute("ry",Q(e.y))}}},G={f:null,i:function(t,n,r){return 0===t?n:1===t?r:{width:w(t,n.width,r.width),height:w(t,n.height,r.height)}},u:function(t,n){return function(r){var e=n(r);t.setAttribute("width",Q(e.width)),t.setAttribute("height",Q(e.height))}}},H=Math.sin,Y=Math.cos,Z=Math.acos,J=Math.asin,K=Math.tan,W=Math.atan2,X=Math.PI/180,tt=180/Math.PI,nt=Math.sqrt,rt=function(){function t(){var r=arguments.length>0&&void 0!==arguments[0]?arguments[0]:1,e=arguments.length>1&&void 0!==arguments[1]?arguments[1]:0,i=arguments.length>2&&void 0!==arguments[2]?arguments[2]:0,o=arguments.length>3&&void 0!==arguments[3]?arguments[3]:1,u=arguments.length>4&&void 0!==arguments[4]?arguments[4]:0,a=arguments.length>5&&void 0!==arguments[5]?arguments[5]:0;n(this,t),this.m=[r,e,i,o,u,a],this.i=null,this.w=null,this.s=null}return e(t,[{key:"determinant",get:function(){var t=this.m;return t[0]*t[3]-t[1]*t[2]}},{key:"isIdentity",get:function(){if(null===this.i){var t=this.m;this.i=1===t[0]&&0===t[1]&&0===t[2]&&1===t[3]&&0===t[4]&&0===t[5]}return this.i}},{key:"point",value:function(t,n){var r=this.m;return{x:r[0]*t+r[2]*n+r[4],y:r[1]*t+r[3]*n+r[5]}}},{key:"translateSelf",value:function(){var t=arguments.length>0&&void 0!==arguments[0]?arguments[0]:0,n=arguments.length>1&&void 0!==arguments[1]?arguments[1]:0;if(!t&&!n)return this;var r=this.m;return r[4]+=r[0]*t+r[2]*n,r[5]+=r[1]*t+r[3]*n,this.w=this.s=this.i=null,this}},{key:"rotateSelf",value:function(){var t=arguments.length>0&&void 0!==arguments[0]?arguments[0]:0;if(t%=360){var n=H(t*=X),r=Y(t),e=this.m,i=e[0],o=e[1];e[0]=i*r+e[2]*n,e[1]=o*r+e[3]*n,e[2]=e[2]*r-i*n,e[3]=e[3]*r-o*n,this.w=this.s=this.i=null}return this}},{key:"scaleSelf",value:function(){var t=arguments.length>0&&void 0!==arguments[0]?arguments[0]:1,n=arguments.length>1&&void 0!==arguments[1]?arguments[1]:1;if(1!==t||1!==n){var r=this.m;r[0]*=t,r[1]*=t,r[2]*=n,r[3]*=n,this.w=this.s=this.i=null}return this}},{key:"skewSelf",value:function(t,n){if(n%=360,(t%=360)||n){var r=this.m,e=r[0],i=r[1],o=r[2],u=r[3];t&&(t=K(t*X),r[2]+=e*t,r[3]+=i*t),n&&(n=K(n*X),r[0]+=o*n,r[1]+=u*n),this.w=this.s=this.i=null}return this}},{key:"resetSelf",value:function(){var t=arguments.length>0&&void 0!==arguments[0]?arguments[0]:1,n=arguments.length>1&&void 0!==arguments[1]?arguments[1]:0,r=arguments.length>2&&void 0!==arguments[2]?arguments[2]:0,e=arguments.length>3&&void 0!==arguments[3]?arguments[3]:1,i=arguments.length>4&&void 0!==arguments[4]?arguments[4]:0,o=arguments.length>5&&void 0!==arguments[5]?arguments[5]:0,u=this.m;return u[0]=t,u[1]=n,u[2]=r,u[3]=e,u[4]=i,u[5]=o,this.w=this.s=this.i=null,this}},{key:"recomposeSelf",value:function(){var t=arguments.length>0&&void 0!==arguments[0]?arguments[0]:null,n=arguments.length>1&&void 0!==arguments[1]?arguments[1]:null,r=arguments.length>2&&void 0!==arguments[2]?arguments[2]:null,e=arguments.length>3&&void 0!==arguments[3]?arguments[3]:null,i=arguments.length>4&&void 0!==arguments[4]?arguments[4]:null;return this.isIdentity||this.resetSelf(),t&&(t.x||t.y)&&this.translateSelf(t.x,t.y),n&&this.rotateSelf(n),r&&(r.x&&this.skewSelf(r.x,0),r.y&&this.skewSelf(0,r.y)),!e||1===e.x&&1===e.y||this.scaleSelf(e.x,e.y),i&&(i.x||i.y)&&this.translateSelf(i.x,i.y),this}},{key:"decompose",value:function(){var t=arguments.length>0&&void 0!==arguments[0]?arguments[0]:0,n=arguments.length>1&&void 0!==arguments[1]?arguments[1]:0,r=this.m,e=r[0]*r[0]+r[1]*r[1],i=[[r[0],r[1]],[r[2],r[3]]],o=nt(e);if(0===o)return{origin:{x:r[4],y:r[5]},translate:{x:t,y:n},scale:{x:0,y:0},skew:{x:0,y:0},rotate:0};i[0][0]/=o,i[0][1]/=o;var u=r[0]*r[3]-r[1]*r[2]<0;u&&(o=-o);var a=i[0][0]*i[1][0]+i[0][1]*i[1][1];i[1][0]-=i[0][0]*a,i[1][1]-=i[0][1]*a;var l=nt(i[1][0]*i[1][0]+i[1][1]*i[1][1]);if(0===l)return{origin:{x:r[4],y:r[5]},translate:{x:t,y:n},scale:{x:o,y:0},skew:{x:0,y:0},rotate:0};i[1][0]/=l,i[1][1]/=l,a/=l;var f=0;return i[1][1]<0?(f=Z(i[1][1])*tt,i[0][1]<0&&(f=360-f)):f=J(i[0][1])*tt,u&&(f=-f),a=W(a,nt(i[0][0]*i[0][0]+i[0][1]*i[0][1]))*tt,u&&(a=-a),{origin:{x:r[4],y:r[5]},translate:{x:t,y:n},scale:{x:o,y:l},skew:{x:a,y:0},rotate:f}}},{key:"toString",value:function(){return null===this.s&&(this.s="matrix("+this.m.map(it).join(" ")+")"),this.s}}]),t}(),et=/\.0+$/;function it(t){return Number.isInteger(t)?t:t.toFixed(14).replace(et,"")}function ot(t,n,r){return t+(n-t)*r}function ut(t,n,r){var e=arguments.length>3&&void 0!==arguments[3]&&arguments[3],i={x:ot(t.x,n.x,r),y:ot(t.y,n.y,r)};return e&&(i.a=at(t,n)),i}function at(t,n){return Math.atan2(n.y-t.y,n.x-t.x)}Object.freeze({M:2,L:2,Z:0,H:1,V:1,C:6,Q:4,T:2,S:4,A:7});var lt={},ft=null;function st(n){var r=function(){if(ft)return ft;if("object"!==("undefined"==typeof document?"undefined":t(document)))return{};var n=document.createElementNS("http://www.w3.org/2000/svg","svg");return n.style.position="absolute",n.style.opacity="0.01",n.style.zIndex="-9999",n.style.left="-9999px",n.style.width="1px",n.style.height="1px",ft={svg:n}}().svg;if(!r)return function(t){return null};var e=document.createElementNS(r.namespaceURI,"path");e.setAttributeNS(null,"d",n),e.setAttributeNS(null,"fill","none"),e.setAttributeNS(null,"stroke","none"),r.appendChild(e);var i=e.getTotalLength();return function(t){var n=e.getPointAtLength(i*t);return{x:n.x,y:n.y}}}function ct(t){return lt[t]?lt[t]:lt[t]=st(t)}function ht(t,n,r,e){if(!t||!e)return!1;var i=["M",t.x,t.y];if(n&&r&&(i.push("C"),i.push(n.x),i.push(n.y),i.push(r.x),i.push(r.y)),n?!r:r){var o=n||r;i.push("Q"),i.push(o.x),i.push(o.y)}return n||r||i.push("L"),i.push(e.x),i.push(e.y),i.join(" ")}function vt(t,n,r,e){var i=arguments.length>4&&void 0!==arguments[4]?arguments[4]:1,o=ht(t,n,r,e),u=ct(o);try{return u(i)}catch(t){return null}}function yt(t,n,r,e){var i=1-e;return i*i*t+2*i*e*n+e*e*r}function dt(t,n,r,e){return 2*(1-e)*(n-t)+2*e*(r-n)}function gt(t,n,r,e){var i=arguments.length>4&&void 0!==arguments[4]&&arguments[4],o=vt(t,n,null,r,e);return o||(o={x:yt(t.x,n.x,r.x,e),y:yt(t.y,n.y,r.y,e)}),i&&(o.a=pt(t,n,r,e)),o}function pt(t,n,r,e){return Math.atan2(dt(t.y,n.y,r.y,e),dt(t.x,n.x,r.x,e))}function mt(t,n,r,e,i){var o=i*i;return i*o*(e-t+3*(n-r))+3*o*(t+r-2*n)+3*i*(n-t)+t}function bt(t,n,r,e,i){var o=1-i;return 3*(o*o*(n-t)+2*o*i*(r-n)+i*i*(e-r))}function wt(t,n,r,e,i){var o=arguments.length>5&&void 0!==arguments[5]&&arguments[5],u=vt(t,n,r,e,i);return u||(u={x:mt(t.x,n.x,r.x,e.x,i),y:mt(t.y,n.y,r.y,e.y,i)}),o&&(u.a=xt(t,n,r,e,i)),u}function xt(t,n,r,e,i){return Math.atan2(bt(t.y,n.y,r.y,e.y,i),bt(t.x,n.x,r.x,e.x,i))}function kt(t,n,r){var e=arguments.length>3&&void 0!==arguments[3]&&arguments[3];if(_t(n)){if(St(r))return gt(n,r.start,r,t,e)}else if(_t(r)){if(n.end)return gt(n,n.end,r,t,e)}else{if(n.end)return r.start?wt(n,n.end,r.start,r,t,e):gt(n,n.end,r,t,e);if(r.start)return gt(n,r.start,r,t,e)}return ut(n,r,t,e)}function At(t,n,r){var e=kt(t,n,r,!0);return e.a=function(t){var n=arguments.length>1&&void 0!==arguments[1]&&arguments[1];return n?t+Math.PI:t}(e.a)/p,e}function _t(t){return!t.type||"corner"===t.type}function St(t){return null!=t.start&&!_t(t)}var Ot=new rt;var Mt={f:Q,i:b},jt={f:Q,i:function(t,n,r){var e=b(t,n,r);return e<=0?0:e>=1?1:e}};function Ft(t,n,r,e,i,o,u,a){return n=function(t,n,r){for(var e,i,o,u=t.length-1,a={},l=0;l<=u;l++)(e=t[l]).e&&(e.e=n(e.e)),e.v&&"g"===(i=e.v).t&&i.r&&(o=r.getElementById(i.r))&&(a[i.r]=o.querySelectorAll("stop"));return a}(t,e,a),function(e){var i,o=r(e,t,Pt);return o?"c"===o.t?V(o.v):"g"===o.t?(n[o.r]&&function(t,n){for(var r=0,e=t.length;r<e;r++)t[r].setAttribute("stop-color",V(n[r]))}(n[o.r],o.v),(i=o.r)?"url(#"+i+")":"none"):"none":"none"}}function Pt(t,n,r){if(0===t)return n;if(1===t)return r;if(n&&r){var e=n.t;if(e===r.t)switch(n.t){case"c":return{t:e,v:A(t,n.v,r.v)};case"g":if(n.r===r.r)return{t:e,v:_(t,n.v,r.v),r:n.r}}}return m(t,n,r)}var Bt={fill:Ft,"fill-opacity":jt,stroke:Ft,"stroke-opacity":jt,"stroke-width":Mt,"stroke-dashoffset":{f:Q,i:b},"stroke-dasharray":{f:function(t){var n=arguments.length>1&&void 0!==arguments[1]?arguments[1]:" ";return t&&t.length>0&&(t=t.map((function(t){return Math.floor(1e4*t)/1e4}))),U(t,n)},i:function(t,n,r){var e,i,o,u=n.length,a=r.length;if(u!==a)if(0===u)n=S(u=a,0);else if(0===a)a=u,r=S(u,0);else{var l=(o=(e=u)*(i=a)/function(t,n){for(var r;n;)r=n,n=t%n,t=r;return t||1}(e,i))<0?-o:o;n=O(n,Math.floor(l/u)),r=O(r,Math.floor(l/a)),u=a=l}for(var f=[],s=0;s<u;s++)f.push(g(w(t,n[s],r[s]),6));return f}},opacity:jt,transform:function(n,r,e,i){if(!(n=function(n,r){if(!n||"object"!==t(n))return null;var e=!1;for(var i in n)n.hasOwnProperty(i)&&(n[i]&&n[i].length?(n[i].forEach((function(t){t.e&&(t.e=r(t.e))})),e=!0):delete n[i]);return e?n:null}(n,i)))return null;var o=function(t,i,o){var u=arguments.length>3&&void 0!==arguments[3]?arguments[3]:null;return n[t]?e(i,n[t],o):r&&r[t]?r[t]:u};return r&&r.a&&n.o?function(t){var r=e(t,n.o,At);return Ot.recomposeSelf(r,o("r",t,b,0)+r.a,o("k",t,x),o("s",t,x),o("t",t,x)).toString()}:function(t){return Ot.recomposeSelf(o("o",t,kt,null),o("r",t,b,0),o("k",t,x),o("s",t,x),o("t",t,x)).toString()}},r:Mt,"#size":G,"#radius":$,_:function(t,n){if(Array.isArray(t))for(var r=0;r<t.length;r++)this[t[r]]=n;else this[t]=n}};return function(t){!function(t,n){if("function"!=typeof n&&null!==n)throw new TypeError("Super expression must either be null or a function");t.prototype=Object.create(n&&n.prototype,{constructor:{value:t,writable:!0,configurable:!0}}),n&&o(t,n)}(u,t);var r=a(u);function u(){return n(this,u),r.apply(this,arguments)}return e(u,null,[{key:"build",value:function(t){var n=l(i(u),"build",this).call(this,t,Bt);n.el,n.options;var r=n.player;return function(t,n,r){t.play()}(r),r}}]),u}(L)}));
__SVGATOR_PLAYER__.build({"root":"eLnPEA5BhOr1","animations":[{"duration":3000,"direction":1,"iterations":1,"fill":1,"alternate":false,"speed":1,"elements":{"eLnPEA5BhOr2":{"opacity":[{"t":500,"v":0},{"t":1100,"v":1}]},"eLnPEA5BhOr3":{"opacity":[{"t":0,"v":0},{"t":600,"v":1}]},"eLnPEA5BhOr4":{"transform":{"keys":{"o":[{"t":0,"v":{"x":-84.42424132500001,"y":-15,"type":"corner"}},{"t":600,"v":{"x":-70.52,"y":-15,"type":"corner"}},{"t":1100,"v":{"x":-84.42,"y":-15,"type":"corner"}},{"t":1800,"v":{"x":-70.52,"y":-15,"type":"corner"}},{"t":2200,"v":{"x":-84.42,"y":-15,"type":"corner"}},{"t":3000,"v":{"x":-70.52,"y":-15,"type":"corner"}}]}},"opacity":[{"t":0,"v":0},{"t":500,"v":1}]},"eLnPEA5BhOr5":{"transform":{"keys":{"o":[{"t":0,"v":{"x":-84.42424132500001,"y":-15,"type":"corner"}},{"t":300,"v":{"x":-70.52,"y":-15,"type":"corner"}},{"t":800,"v":{"x":-84.42,"y":-15,"type":"corner"}},{"t":1400,"v":{"x":-70.52,"y":-15,"type":"corner"}},{"t":2000,"v":{"x":-84.42,"y":-15,"type":"corner"}},{"t":2500,"v":{"x":-70.52,"y":-15,"type":"corner"}},{"t":3000,"v":{"x":-70.52,"y":-15,"type":"corner"}}]}},"opacity":[{"t":0,"v":0},{"t":500,"v":1}]},"eLnPEA5BhOr6":{"transform":{"keys":{"o":[{"t":0,"v":{"x":-84.42424132500001,"y":-15,"type":"corner"}},{"t":500,"v":{"x":-70.52,"y":-15,"type":"corner"}},{"t":900,"v":{"x":-84.42,"y":-15,"type":"corner"}},{"t":1600,"v":{"x":-70.52,"y":-15,"type":"corner"}},{"t":2400,"v":{"x":-84.42,"y":-15,"type":"corner"}},{"t":3000,"v":{"x":-70.52,"y":-15,"type":"corner"}}]}},"opacity":[{"t":0,"v":0},{"t":500,"v":1}]},"eLnPEA5BhOr7":{"transform":{"keys":{"o":[{"t":0,"v":{"x":-84.42424132500001,"y":-15,"type":"corner"}},{"t":700,"v":{"x":-70.52,"y":-15,"type":"corner"}},{"t":1500,"v":{"x":-84.42,"y":-15,"type":"corner"}},{"t":2400,"v":{"x":-70.52,"y":-15,"type":"corner"}},{"t":3000,"v":{"x":-70.52,"y":-15,"type":"corner"}}]}},"opacity":[{"t":0,"v":0},{"t":500,"v":1}]},"eLnPEA5BhOr8":{"transform":{"keys":{"o":[{"t":0,"v":{"x":-84.42424132500001,"y":-15,"type":"corner"}},{"t":700,"v":{"x":-70.52,"y":-15,"type":"corner"}},{"t":1500,"v":{"x":-84.42,"y":-15,"type":"corner"}},{"t":2300,"v":{"x":-70.52,"y":-15,"type":"corner"}},{"t":3000,"v":{"x":-70.52,"y":-15,"type":"corner"}}]}},"opacity":[{"t":0,"v":0},{"t":500,"v":1},{"t":3000,"v":1}]},"eLnPEA5BhOr10":{"opacity":[{"t":2000,"v":0},{"t":2600,"v":1}]},"eLnPEA5BhOr11":{"opacity":[{"t":1000,"v":0},{"t":1500,"v":1}]},"eLnPEA5BhOr12":{"opacity":[{"t":2400,"v":0},{"t":3000,"v":1}]},"eLnPEA5BhOr13":{"opacity":[{"t":1600,"v":0},{"t":2200,"v":1}]},"eLnPEA5BhOr14":{"transform":{"keys":{"o":[{"t":0,"v":{"x":-84.42424132500001,"y":-15,"type":"corner"}},{"t":600,"v":{"x":-70.52,"y":-15,"type":"corner"}},{"t":1100,"v":{"x":-84.42,"y":-15,"type":"corner"}},{"t":1900,"v":{"x":-70.52,"y":-15,"type":"corner"}},{"t":2500,"v":{"x":-84.42,"y":-15,"type":"corner"}},{"t":3000,"v":{"x":-70.52,"y":-15,"type":"corner"}}]}},"opacity":[{"t":0,"v":0},{"t":500,"v":1}]},"eLnPEA5BhOr18":{"opacity":[{"t":2000,"v":0},{"t":2600,"v":1}]},"eLnPEA5BhOr19":{"opacity":[{"t":1200,"v":0},{"t":1700,"v":1}]}}}],"options":{"start":"load","hover":"freeze","click":"freeze","scroll":25,"font":"embed","exportedIds":"unique","svgFormat":"animated","title":"logo"},"animationSettings":{"duration":3000,"direction":1,"iterations":1,"fill":1,"alternate":false,"speed":1}})]]></script></svg>