<svg id="Capa_1" data-name="Capa 1" xmlns="http://www.w3.org/2000/svg" viewBox="0 0 280.42 122.17"><defs><style>.cls-1{fill:#432e2e}</style></defs><path d="M114.4 89V62.45a47.28 47.28 0 01.42-5.32 14.8 14.8 0 013.72-7.87 27.26 27.26 0 0113.53-8.73 36.22 36.22 0 0127.55 2.12 21.19 21.19 0 019.65 8.91 16.85 16.85 0 012.16 8.28c-.07 6.29 0 12.58 0 18.87 0 1.51 0 1.51-1.56 1.52h-23c-1.43 0-1.44 0-1.44-1.46V60.58a6.73 6.73 0 00-.27-2.14 2.41 2.41 0 00-2.24-1.88 2.65 2.65 0 00-2.11 2.1 5.64 5.64 0 00-.06 1.16v54.26a7.76 7.76 0 00.45 2.62 3.22 3.22 0 00.81 1.25 1.78 1.78 0 003.06-.71 7.52 7.52 0 00.37-2.63V96.74v-1.16c0-.38.24-.69.71-.66s.67 0 1 0h23.53c.55 0 .84.19.81.77V113.06a48.56 48.56 0 01-.52 6.81 9.27 9.27 0 01-1 3.14 22.67 22.67 0 01-8.5 9 35.08 35.08 0 01-22.65 4.99 33.92 33.92 0 01-12.82-3.87 27.51 27.51 0 01-8.11-6.57 14.65 14.65 0 01-3.46-9.83q-.04-13.84-.03-27.73zM106.6 82.86c0 12.91-.11 25.81 0 38.72.11 8.63-7 12.75-12.73 12.77h-22c-1.31 0-1.34 0-1.34-1.22v-14.69c0-.83.18-1.24 1.09-1.13a15.49 15.49 0 001.67 0 7 7 0 007-6.26 45.21 45.21 0 00.28-5.33V43.3c0-1.8 0-1.8 1.73-1.8h23.53c.55 0 .82.21.79.78v1.17zM313.91 55.35a29.7 29.7 0 018.62-.52c4.93.44 9.84 1.11 14.8 1.17a15.38 15.38 0 005.37-.9c7.93-2.82 11.81-13.38 3.93-20.51-4-3.61-8.76-4.62-14-3.46-.7.16-1.26.41-1.82-.46-3.62-5.62-13.47-5.75-17.9-2.3a10.54 10.54 0 002-.05 14.73 14.73 0 016.13 0c3.65.86 6.78 2.46 8.6 6 .56 1.08.56 1.08 1.87.79a11.64 11.64 0 019.42 1.55 8.7 8.7 0 014.13 8.06 9.59 9.59 0 01-8.95 9 38.45 38.45 0 01-7.66-.14c-2.78-.24-5.56-.31-8.34-.33a15.41 15.41 0 00-5.85 1.16c-.27.1-.54.45-.88.26zM283.49 25.88c-.33-.07-.47-.37-.8-1.12a13.41 13.41 0 00-18.59-6.64 1.52 1.52 0 01-1.89-.16A14.5 14.5 0 00242 20.64v.21c.5 0 .76-.41 1.13-.63a13.91 13.91 0 0114.84-.15 11.37 11.37 0 015.22 6.51 11.23 11.23 0 019.24-3.65 10.27 10.27 0 018.23 5.1zM265 57.86a1.44 1.44 0 00-.5.57 14.3 14.3 0 01-9.83 6.49 52.48 52.48 0 01-15.11.53 44.6 44.6 0 00-9.8.63 63.42 63.42 0 00-24.31 8.64A40.62 40.62 0 00193.4 86c-.32.08.58-1.08.68-1.4a23.7 23.7 0 014.22-6.55 38.67 38.67 0 018.36-7.37 61.7 61.7 0 0119.13-8.37 52.77 52.77 0 0115.51-1.78 33.11 33.11 0 0010.7-1.21 12.79 12.79 0 006.27-3.59 6.91 6.91 0 001.36-7.45c-1.07-2.75-3.28-4.11-6-4.64a11.82 11.82 0 00-4.15-.23c-.79.13-1.1-.16-1.18-.93A10.61 10.61 0 00246 37a8.9 8.9 0 00-8.14-3.62c-4.91.4-7.94 3.28-9.74 7.68-.29.71-.36 1.7-.88 2.1s-1.39-.37-2.13-.53a14.2 14.2 0 00-6.61 0 8.94 8.94 0 00-6.07 12.8c.35.75.78 1.45 1.15 2.15-.17.53-.65.49-1 .61-4.67 1.76-9.27 3.72-13.84 5.72a43.59 43.59 0 00-18 14.22c-1.22 1.65-3.73 4.61-5 6.25-.33 0 .74-1.38.88-1.76a36.56 36.56 0 014.3-9 50.49 50.49 0 0120.5-18.56c1.4-.7 1.39-.71 1.2-2.23A13.8 13.8 0 01216 37.41a11 11 0 014.26.67c.92.36 1.21.09 1.57-.73a19.58 19.58 0 019.82-10.23 14.78 14.78 0 0110.4-.91 10.68 10.68 0 014.85 3.1 17.16 17.16 0 014.38 8.3c.2.89.54 1.15 1.42 1.16a17.66 17.66 0 016.64 1.39 1.24 1.24 0 00.62.13l3.42 2a1.24 1.24 0 00.35.82 13.23 13.23 0 012.72 8.22 9.61 9.61 0 01-.4 3 1.77 1.77 0 00-.12.91zM265 57.86a1.07 1.07 0 01.92.08 10.89 10.89 0 009.2-.31c.73-.36 1.09-.36 1.62.35a9 9 0 0013.36 1.37s.06-.05.08-.13 0-.15-.13-.21a9.89 9.89 0 01-5.9 0 8.28 8.28 0 01-5.6-6c-.54 0-.82.41-1.16.66a14.25 14.25 0 01-8.43 2.67 5.17 5.17 0 01-2.13-.32c-.53-.23-.81-.44-.9-.76z" transform="translate(-70.52 -15)"/><path d="M263.33 42.33a1.08 1.08 0 01.47-.68 10.14 10.14 0 017.38-2.48 13.13 13.13 0 017.73 2.77 1.08 1.08 0 00.41-.8 12.61 12.61 0 012.66-5.5c3.71-4.46 9-4.43 12.5-.82a11.86 11.86 0 013.23 6.27c.16.9.53 1.2 1.4 1.2a7 7 0 013.89 1.22 9 9 0 012.11 12.91 27.14 27.14 0 01-15.39 10.2A49.39 49.39 0 01280.7 68c-5.05.36-10.1.63-15.15 1-2 .15-4 .3-6 .31a129.2 129.2 0 00-23.56 2 28.28 28.28 0 00-9.11 3.07 2.71 2.71 0 00-.35.24c-.06.3-2.54 2.26-2.2 2.16.11 0 2.77-1.87 2.88-1.9l.4-.21a54 54 0 018-2.08c5.91-1 11.86-.75 17.81-.59 8.73.23 17.46.46 26.17-.4a57.69 57.69 0 0010-1.64 69.45 69.45 0 0014.54-5.72c3.58-2 7-4.18 8.91-8a1.52 1.52 0 01.52-.59l.6-1.12a10.84 10.84 0 01.34-1.71 13.75 13.75 0 00-12.8-17.52 1.53 1.53 0 01-1.64-1.19 13.44 13.44 0 00-15.47-8.38 3.4 3.4 0 01-1.1.15l-2.9 2.12a14 14 0 00-5.65 6c-.68 1.43-1.49 1.65-2.89 1.62-4.4-.09-8.55.68-11.6 4.29a.88.88 0 01-.54.34zM313.07 55.35a2.93 2.93 0 00-1.11.38M267.93 91.11c-.8-2.4-2.25-4.08-4.84-4.52a21.39 21.39 0 00-3.48-.36h-15.52c-1.42 0-1.42 0-1.86 1.3q-7.74 22.71-15.46 45.43c-.14.41-.42.8-.1 1.36h10.94a1.45 1.45 0 001.64-1.2c1.07-3.16 2.21-6.29 3.32-9.43 1-2.88 2-5.77 3.05-8.65A2.71 2.71 0 01248 113a1.13 1.13 0 011.3.77 3.46 3.46 0 010 2.59q-2.73 8.22-5.43 16.46a1.8 1.8 0 00-.18 1.31h10.5a1.07 1.07 0 001.25-1c.17-.76.47-1.48.71-2.22q2.64-8 5.27-16a3.27 3.27 0 00-2.33-4.55 6.93 6.93 0 00-2.27-.27c.14-1.34.14-1.37 1.11-1.28a6.78 6.78 0 005.58-2.1 11.25 11.25 0 002.55-3.87 43.34 43.34 0 001.92-6.38 9.61 9.61 0 00-.05-5.35zm-12.44 5.56c-.79 2.48-1.67 4.92-2.51 7.38-.37 1.07-1.24 1.14-2.17 1.08-.33 0-.66 0-1-.06-.5 0-.67-.32-.55-.79 0-.16.09-.32.14-.48 1-2.65 1.89-5.31 2.85-8 .38-1 .92-1.34 1.88-1.19a1.48 1.48 0 011.36 2.06zM215 86.08h-14.52a2 2 0 00-2.14 1.3c-7.67 15.29-15.1 30.7-22.67 46-.15.3-.38.57-.06 1h11.28a1.6 1.6 0 001.82-1.24c.75-2.15 1.66-4.24 2.44-6.37a1.28 1.28 0 011.46-1c1.47.07 3 0 4.6 0l-3.29 8.69h12.52c.78 0 .91-.41 1-1q.51-2.79 1.05-5.57 3.25-16.86 6.52-33.71c.51-2.67 1-5.34 1.53-8a3 3 0 00-1.54-.1zm-11.8 14.4q-1.42 5.72-2.87 11.42c-.35 1.4-.75 2.78-1.08 4.18-.12.53-.35.74-.89.72h-3.09c2.52-5.81 5-11.45 7.57-17 .67-.06.48.33.38.68zM297.75 86.27c-1.36 3.06-2.61 5.84-3.82 8.63a1.19 1.19 0 01-1.33.73h-5.67c-1.37 0-1.38 0-1.87 1.33-.85 2.29-1.69 4.59-2.53 6.88-.11.3-.18.61-.32 1.09h8.48c.41.55.05.88-.07 1.2-.9 2.32-1.89 4.62-2.75 7a1.62 1.62 0 01-1.83 1.26c-2-.08-4 0-6 0-.62 0-1 .11-1.28.77-1.12 3.19-2.29 6.35-3.5 9.68H285a1.85 1.85 0 01-.2 1.38q-1.26 3.62-2.51 7.23c-.21.63-.47 1-1.27 1h-21.49c-.34-.59.05-1 .2-1.47q7.73-22.6 15.5-45.21c.48-1.4.48-1.41 1.95-1.41h20.6zM209.2 134.21c-.2-.54.13-1 .29-1.43q7.74-22.59 15.5-45.18c.45-1.32.46-1.33 1.85-1.33h9.67a2.35 2.35 0 011.39.21c-1 3-2.05 6.08-3.08 9.11q-6.31 18.6-12.66 37.18c-.58 1.68-.13 1.59-2.16 1.59h-9.34a2.62 2.62 0 01-1.46-.15z" transform="translate(-70.52 -15)"/><path d="M261.66 78.07a34.71 34.71 0 0110.16-1.68c4.53-.27 9 .52 13.43 1.12 6.06.8 12.11 1.71 18.22 2.07a57.88 57.88 0 0012.11-1 29.54 29.54 0 008.24-2.51c4.63-2.2 5.25-8 2.78-11.89a5.67 5.67 0 00-6-2.25 4.76 4.76 0 00-4 4.29 4.66 4.66 0 003 5.22l1.13.49c-2.26 1.52-4.52 1.94-6.94.65a6.47 6.47 0 01-3-6.1 5.71 5.71 0 01.86-2.14 12.85 12.85 0 0112.74-5.87 13.69 13.69 0 016 2.31c5.87 4.19 5.67 13-.1 17.31a24.3 24.3 0 01-10.64 4.27 76.31 76.31 0 01-14.93 1.28 62.68 62.68 0 01-10.73-1.4c-6.16-1.2-12.31-2.46-18.51-3.42a60.88 60.88 0 00-12.51-.42 4.08 4.08 0 00-1.24.25c-1.21.41-3.15 1.1-.07-.58z" transform="translate(-70.52 -15)"/><path d="M288.38 59.35l-.06-.34" transform="translate(-70.52 -15)" fill="#927f7f"/></svg>


